<svg width="500" height="400" viewBox="0 0 500 400" xmlns="http://www.w3.org/2000/svg">
  <rect width="400" height="300" x="50" y="50" fill="#e0e0e0" rx="10" ry="10" />
  <rect width="380" height="60" x="60" y="70" fill="#ffffff" rx="5" ry="5" />
  <rect width="20" height="20" x="70" y="90" fill="#3f51b5" rx="3" ry="3" />
  <rect width="250" height="10" x="100" y="85" fill="#757575" rx="2" ry="2" />
  <rect width="150" height="10" x="100" y="105" fill="#9e9e9e" rx="2" ry="2" />
  
  <rect width="380" height="60" x="60" y="140" fill="#ffffff" rx="5" ry="5" />
  <rect width="20" height="20" x="70" y="160" fill="#ff4081" rx="3" ry="3" />
  <rect width="250" height="10" x="100" y="155" fill="#757575" rx="2" ry="2" />
  <rect width="150" height="10" x="100" y="175" fill="#9e9e9e" rx="2" ry="2" />
  
  <rect width="380" height="60" x="60" y="210" fill="#ffffff" rx="5" ry="5" />
  <rect width="20" height="20" x="70" y="230" fill="#4caf50" rx="3" ry="3" />
  <rect width="250" height="10" x="100" y="225" fill="#757575" rx="2" ry="2" />
  <rect width="150" height="10" x="100" y="245" fill="#9e9e9e" rx="2" ry="2" />
  
  <rect width="380" height="60" x="60" y="280" fill="#ffffff" rx="5" ry="5" />
  <rect width="20" height="20" x="70" y="300" fill="#ff9800" rx="3" ry="3" />
  <rect width="250" height="10" x="100" y="295" fill="#757575" rx="2" ry="2" />
  <rect width="150" height="10" x="100" y="315" fill="#9e9e9e" rx="2" ry="2" />
  
  <circle cx="400" cy="350" r="30" fill="#3f51b5" />
  <text x="395" y="357" font-family="Arial" font-size="30" fill="white">+</text>
</svg>